<?xml version="1.0" encoding="UTF-8"?>
<svg id="Layer_2" data-name="Layer 2" xmlns="http://www.w3.org/2000/svg" viewBox="0 0 922.46 878.48">
  <defs>
    <style>
      .cls-1, .cls-2 {
        fill: #922123;
      }

      .cls-3 {
        fill: #eee31e;
      }

      .cls-4 {
        fill: #fff;
      }

      .cls-5 {
        fill: #f3adc6;
      }

      .cls-6 {
        fill: #77b743;
      }

      .cls-2 {
        stroke: #070706;
        stroke-miterlimit: 10;
        stroke-width: 6px;
      }

      .cls-7 {
        fill: #6c2a7f;
      }

      .cls-8 {
        fill: #7bcae3;
      }

      .cls-9 {
        fill: #ef8721;
      }

      .cls-10 {
        opacity: .7;
      }

      .cls-11 {
        fill: #2d59a4;
      }

      .cls-12 {
        fill: #e02526;
      }

      .cls-13 {
        fill: #935624;
      }
    </style>
  </defs>
  <g id="Layer_1-2" data-name="Layer 1">
    <path class="cls-4" d="M250.81,46.09c-9.61,4.66-16.48,13.07-18.86,23.08l-7.76,32.69c-2.76,11.65-14.25,19.6-26.77,18.51l-35.05-3.08c-10.74-.92-21.26,2.68-28.89,9.93-7.63,7.26-11.43,17.29-10.44,27.51l3.23,33.37c1.15,11.9-7.21,22.85-19.45,25.48l-34.33,7.38c-10.52,2.26-19.36,8.8-24.25,17.95-4.9,9.15-5.26,19.8-1,29.23l13.9,30.78c4.96,10.98.56,23.85-10.23,29.96l-30.26,17.12c-9.26,5.24-15.55,14.06-17.24,24.2-1.69,10.14,1.42,20.38,8.54,28.1l23.22,25.18c8.28,8.98,8.28,22.52,0,31.5l-23.22,25.18c-7.11,7.72-10.22,17.96-8.54,28.1,1.69,10.14,7.97,18.96,17.24,24.2l30.26,17.12c10.79,6.11,15.19,18.98,10.23,29.96l-13.91,30.78c-4.26,9.43-3.89,20.08,1,29.23,4.9,9.14,13.74,15.69,24.25,17.95l34.33,7.38c12.24,2.63,20.6,13.58,19.45,25.48l-3.23,33.37c-.99,10.22,2.82,20.25,10.44,27.5,7.62,7.26,18.15,10.91,28.89,9.94l35.05-3.08c12.51-1.09,24,6.87,26.77,18.52l7.76,32.68c2.37,10.01,9.24,18.43,18.85,23.08,9.6,4.67,20.79,5.01,30.7.95l32.33-13.24c11.52-4.72,25.06-.54,31.47,9.73l17.98,28.8c5.51,8.82,14.77,14.81,25.42,16.41,1.9.28,3.8.43,5.69.43,8.71,0,17.16-3,23.81-8.56l26.46-22.1c9.44-7.88,23.66-7.87,33.09,0l26.46,22.1c8.1,6.77,18.84,9.7,29.51,8.13,10.65-1.61,19.91-7.59,25.42-16.41l17.99-28.8c6.42-10.27,19.94-14.44,31.47-9.74l32.33,13.25c9.91,4.05,21.09,3.7,30.7-.96,9.61-4.66,16.47-13.07,18.85-23.08l7.76-32.68c2.76-11.66,14.31-19.59,26.77-18.52l35.05,3.08c10.79.98,21.27-2.68,28.89-9.94,7.62-7.26,11.43-17.28,10.43-27.5l-3.23-33.37c-1.15-11.9,7.21-22.85,19.45-25.48l34.33-7.38c10.52-2.26,19.35-8.8,24.25-17.95,4.9-9.15,5.26-19.8,1-29.23l-13.9-30.78c-4.96-10.98-.56-23.85,10.23-29.96l30.26-17.12c9.26-5.24,15.55-14.06,17.24-24.2,1.69-10.14-1.42-20.38-8.53-28.1l-23.22-25.18c-8.28-8.98-8.28-22.52,0-31.5l23.22-25.18c7.11-7.72,10.22-17.96,8.53-28.1-1.69-10.13-7.97-18.95-17.24-24.2l-30.26-17.12c-10.79-6.11-15.18-18.98-10.23-29.96l13.91-30.78c4.26-9.43,3.89-20.08-1-29.23-4.9-9.14-13.73-15.68-24.25-17.95l-34.33-7.38c-12.24-2.63-20.6-13.59-19.45-25.48l3.23-33.37c.99-10.22-2.81-20.25-10.43-27.51-7.63-7.26-18.17-10.89-28.89-9.93l-35.05,3.08c-12.47,1.11-24-6.86-26.77-18.51l-7.76-32.69c-2.38-10.01-9.25-18.43-18.86-23.08-9.6-4.67-20.8-5.01-30.7-.95l-32.33,13.24c-11.53,4.73-25.05.53-31.47-9.74l-17.99-28.8c-5.51-8.82-14.78-14.81-25.43-16.41-10.64-1.62-21.4,1.36-29.5,8.13l-26.46,22.1c-9.43,7.89-23.65,7.88-33.09,0l-26.46-22.1c-8.09-6.76-18.82-9.73-29.5-8.13-10.65,1.6-19.91,7.59-25.43,16.41l-17.98,28.8c-6.42,10.27-19.95,14.45-31.47,9.73l-32.33-13.23c-9.9-4.06-21.09-3.73-30.7.95Z"/>
    <g class="cls-10">
      <path class="cls-7" d="M663.27,729.75c-10.75,6.79-21.89,13.07-33.4,18.78l39.08,73c5.39-3.38,9.31-8.49,10.75-14.56l7.76-32.68c3.98-16.8,20.47-28.29,38.59-26.7l35.05,3.08c6.53.6,12.83-1.39,17.87-5.23l-16.48-15.69h-99.21Z"/>
      <path class="cls-7" d="M782.87,741.72c2.92-3.48,4.81-7.6,5.4-11.96h-17.97l12.57,11.96Z"/>
      <path class="cls-7" d="M259.19,729.75h-67.12l-18.39,19.84,22.74-2c18.03-1.61,34.6,9.89,38.59,26.7l7.76,32.68c1.44,6.07,5.36,11.18,10.75,14.56l39.07-73.01c-11.5-5.71-22.65-11.99-33.4-18.78Z"/>
      <path class="cls-7" d="M461.23,777.31c66.25,0,128.32-17.36,181.45-47.56h-362.91c53.14,30.19,115.21,47.56,181.46,47.56Z"/>
      <path class="cls-7" d="M515.78,783.97c-17.8,2.54-36.01,3.89-54.55,3.89s-36.75-1.34-54.55-3.89l-13.44,80.79c6.45.29,12.77-1.66,17.68-5.77l26.46-22.1c13.6-11.36,34.11-11.35,47.7,0l26.46,22.1c4.91,4.1,11.23,6.04,17.68,5.76l-13.44-80.79Z"/>
      <path class="cls-7" d="M297.51,750.94l-39.07,72.99c6.04,2.16,12.69,2.18,18.69-.28l32.33-13.24c4.61-1.88,9.43-2.78,14.2-2.78,12.44,0,24.48,6.11,31.17,16.81l17.98,28.8c3.34,5.35,8.73,9.06,14.95,10.69l13.45-80.84c-36.69-5.79-71.53-16.78-103.7-32.16Z"/>
      <path class="cls-7" d="M612.99,810.41l32.33,13.25c6.01,2.46,12.65,2.45,18.7.27l-39.07-72.99c-32.17,15.38-67.02,26.37-103.7,32.16l13.45,80.84c6.22-1.63,11.61-5.34,14.95-10.69l17.99-28.8c9.23-14.8,28.74-20.84,45.36-14.03Z"/>
      <path class="cls-11" d="M788.65,595.1l76.67,37.19c2.27-5.75,2.29-12.08-.29-17.79l-13.55-30h-57.48c-1.72,3.57-3.5,7.1-5.35,10.6Z"/>
      <path class="cls-11" d="M259.19,729.75c-14.05-8.88-27.44-18.64-40.04-29.23l-27.08,29.23h67.12Z"/>
      <path class="cls-11" d="M721.96,683.73l48.35,46.03h17.97c.22-1.65.27-3.34.1-5.04l-3.23-33.37c-1.66-17.16,10.39-32.95,28.04-36.74l34.33-7.38c6.38-1.37,11.74-5.1,15.29-10.24l-76.68-37.2c-16.96,30.98-38.63,59.26-64.16,83.94Z"/>
      <path class="cls-11" d="M625.14,590.46c1.75-1.39,3.34-2.11,3.84-1.63,0,0,8.5,5.53,16.11,15.34.39.5-.24,1.83-1.49,3.32,7.69,7.1,12.14,11.2,12.14,11.2,7.45,7.1,6.2,19.79-2.8,28.36-9,8.57-22.34,9.76-29.79,2.67-1.05-1-6.43-7.07-10.26-11.7-.22-.27-.45-.53-.68-.8-1.29.87-2.38,1.27-2.83.95-10.3-7.24-15.43-15.99-15.43-15.99-.51-.49.26-2.03,1.76-3.72-1.72-1.84-3.44-3.67-5.19-5.49-7.98-8.28-17.53-17.97-28.03-28.48h-202.52c-10.5,10.52-20.05,20.21-28.03,28.48-1.75,1.81-3.48,3.65-5.19,5.49,1.49,1.68,2.27,3.23,1.76,3.72,0,0-5.12,8.75-15.43,15.99-.45.32-1.54-.09-2.83-.95-.22.27-.46.53-.68.8-3.82,4.63-9.21,10.7-10.26,11.7-7.45,7.09-20.79,5.9-29.79-2.67-.15-.14-.28-.3-.43-.44l-42.66,46.04c16.49,13.87,34.35,26.3,53.34,37.09h362.91c60.14-34.17,108.83-84.78,139.18-145.26h-163.2c2.23,2.06,4.4,4.05,6.47,5.97Z"/>
      <path class="cls-11" d="M718.04,687.45c-16.76,15.71-35.1,29.88-54.77,42.3h99.21l-44.44-42.3Z"/>
      <path class="cls-6" d="M793.99,584.49h57.48l-.35-.78c-7.15-15.82-.81-34.39,14.74-43.19l30.26-17.12c5.62-3.18,9.51-8.31,11.22-14.23l-84.91-12.8c-5.38,30.94-15.07,60.49-28.43,88.12Z"/>
      <path class="cls-6" d="M699.79,443.43c-.77.14-1.55.28-2.29.55-1.08.39-2.03,1.07-3.09,1.49-1.74.69-3.68.69-5.54,1.01,1.14-2.39,2.07-4.81,2.81-7.25h-182.79c-5.88,5.65-14.04,13.49-23.73,22.83.42.38.82.75,1.24,1.13,1.76-1.49,4.07-1.78,5.31-.6,0,0,16.14,13.27,33.87,32.25.94,1,.86,2.63-.04,4.09,33.9,31.03,68.24,62.62,93.14,85.56h163.2c22.1-44.03,34.48-93.29,34.48-145.26h-102.17c-4.68,1.77-9.45,3.27-14.39,4.2Z"/>
      <path class="cls-6" d="M460.67,439.84c.19.17.37.34.56.51.41-.37.82-.74,1.23-1.11h-1.23l-.56.61Z"/>
      <path class="cls-6" d="M500.09,522.94c-1.4.62-2.88.6-3.82-.2-19.93-16.87-33.31-32.78-33.31-32.78-.88-.84-.97-2.19-.41-3.5-.45-.43-.88-.85-1.33-1.28-.45.43-.88.85-1.33,1.28.57,1.31.47,2.66-.41,3.5,0,0-13.37,15.91-33.31,32.78-.94.8-2.42.82-3.82.2-21.5,20.98-43.49,42.62-62.4,61.56h202.52c-18.91-18.94-40.9-40.58-62.4-61.56Z"/>
      <path class="cls-6" d="M823.35,491.17l84.86,12.79c.3-6.14-1.74-12.16-6.05-16.84l-23.22-25.18c-5.97-6.47-8.95-14.59-8.95-22.71h-42.55c0,17.65-1.41,34.98-4.08,51.93Z"/>
      <path class="cls-3" d="M676.74,296.51l7.5,7.14c.66,1.09,1.61,1.91,2.72,2.59l27.69,26.36c-1.26.32,5.82,7.11,7.91,7.53l63.1,60.07c-.72.05-1.45.39-1.58,1.05-.13.69.45,1.29.91,1.84.03.04.06.08.09.12-.92.5-1.83.99-2.75,1.49-.59.32-1.19.65-1.78.97-3.13,1.7-6.28,3.41-9.66,4.59-.52.18-1.06.36-1.49.7-.58.46-.88,1.16-1.26,1.78-.11.19-.26.36-.39.53-3.32,1.87-6.94,3.87-10.77,5.93-1.91.75-3.82,1.5-5.73,2.26-.6.24-1.22.48-1.72.88-.46.36-.8.83-1.2,1.26-.16.17-.35.31-.52.46-3.03,1.57-6.12,3.14-9.25,4.68-2.56,1.13-5.12,2.27-7.67,3.4-1.17.52-2.34,1.03-3.5,1.55-4.36,1.93-8.75,3.87-13.22,5.56h102.17c0-51.97-12.38-101.23-34.48-145.26h-104.56c.06.86-.12,1.74-.56,2.53Z"/>
      <path class="cls-3" d="M822.43,382.11l84.91-12.8c-1.71-5.92-5.6-11.05-11.22-14.23l-30.26-17.12c-15.55-8.8-21.89-27.36-14.74-43.19l.35-.78h-57.47c13.37,27.63,23.05,57.19,28.43,88.13Z"/>
      <path class="cls-3" d="M685.13,387.69c.25-.22-1.48-3.79-2.05-4.24-3.89-8.12-7.31-13.21-11.79-19.67-.72-2.59-1.67-5.07-3.62-6.95-.87-.83-1.88-1.47-2.97-1.98-5.71-7.29-10.34-12.12-11.57-13.29l-11.56-11c-.47.36-.94.73-1.41,1.09-2.1,1.59-4.98,1.81-6.87,0,0,0-.67-.44-1.86-1.29l-3.01,2.86c-.76.72-3.14,1.66-3.14,1.66,0,0-67.85,67.59-99.85,95.04-1.72,1.48-6.42-.38-6.42-.38,0,0-3.71,3.55-10.12,9.71h182.79c5.19-17.17.84-35.47-6.55-51.55Z"/>
      <path class="cls-3" d="M827.43,439.24h0s42.55,0,42.55,0c0-8.12,2.98-16.23,8.95-22.71l23.22-25.18c4.31-4.68,6.35-10.7,6.05-16.83l-84.86,12.79c2.67,16.95,4.08,34.28,4.08,51.93Z"/>
      <path class="cls-3" d="M462.46,439.24c13.45-12.17,25.34-22.85,34.61-31.05-.8-1.63-.64-3.49.55-4.75,26.38-27.86,88.02-84.28,98.34-93.7.98-2.73,1.21-4.25,2.27-5.26l3.05-2.91c-.47-.57-.93-1.14-1.4-1.73-1.43-1.8-1.81-4.11-.58-5.87h-272.67l134.58,145.26h1.23Z"/>
      <path class="cls-9" d="M219.15,177.95c12.61-10.59,25.99-20.35,40.04-29.23h-67.12l27.08,29.23Z"/>
      <path class="cls-9" d="M793.99,293.98h57.47l13.56-30c2.58-5.72,2.56-12.05.29-17.79l-76.67,37.19c1.85,3.5,3.62,7.04,5.35,10.6Z"/>
      <path class="cls-9" d="M304.44,248.62c4.29-2.04,9.22-4.54,11.77-6.37.58-.41,1.55-1.05,2.82-1.82,2.29-.08,4.4-1.76,6.13-3.35.07-.06.13-.12.2-.19,13.17-6.86,37.32-16.58,57.89-11.22,0,0-1.53,1.17-3.99,3.08-.57.13-1.13.32-1.64.58-2.11,1.05-3.67,2.86-5.29,4.52-.69.7-1.4,1.38-2.12,2.05-2.44,1.96-5.03,4.06-7.6,6.19-1.56,1.16-3.14,2.3-4.72,3.43-8.54,6.14-17.57,13.11-20.53,22.79-5.03,6.6-11.4,15.26-14.77,21.28l4.07,4.39h272.67c.16-.23.35-.46.58-.67l1.28-1.22c-2.74-5.9-10.29-16.2-16.06-23.77-2.96-9.68-11.98-16.65-20.53-22.79-1.58-1.13-3.16-2.27-4.72-3.43-2.58-2.14-5.16-4.24-7.6-6.19-.72-.67-1.44-1.35-2.12-2.05-1.62-1.66-3.18-3.47-5.29-4.52-.51-.25-1.07-.45-1.64-.58-2.45-1.91-3.99-3.08-3.99-3.08,20.56-5.36,44.71,4.36,57.89,11.22.07.06.13.13.2.19,1.73,1.59,3.84,3.28,6.13,3.35,1.28.78,2.25,1.41,2.82,1.82,2.55,1.83,7.48,4.33,11.77,6.37,6.2,2.95,12.29,6.1,18.23,9.48l.38.22.16.16c1.8-.9,4.05-.56,5.73.78,2.27,1.82,4.5,3.68,6.66,5.55,1.16-1.49,1.05-3.6-.37-4.96l-1.49-1.41c-.96-.91-.96-2.39,0-3.3l4.76-4.53c.96-.91,2.42-.82,3.47,0,18.51,14.41,29.45,28.03,29.45,28.03.96.91.96,2.39,0,3.3l-4.76,4.53c-.96.91-2.51.91-3.47,0l-1.49-1.41c-1.43-1.36-3.67-1.46-5.24-.32,3.68,3.84,5.87,6.31,5.87,6.31.86.82,1.31,1.86,1.38,2.93h104.56c-30.35-60.48-79.04-111.09-139.18-145.26h-362.91c-19,10.79-36.85,23.23-53.34,37.09l64.53,69.65c4.42-2.4,8.92-4.68,13.47-6.84Z"/>
      <path class="cls-9" d="M718.05,191.02l44.43-42.3h-99.2c19.67,12.42,38.02,26.59,54.77,42.3Z"/>
      <path class="cls-9" d="M721.96,194.75c25.53,24.67,47.2,52.95,64.16,83.94l76.68-37.2c-3.55-5.13-8.92-8.86-15.29-10.23l-34.33-7.38c-17.65-3.8-29.7-19.59-28.04-36.74l3.23-33.37c.17-1.7.12-3.39-.1-5.05h-17.96l-48.35,46.03Z"/>
      <path class="cls-12" d="M788.27,148.72c-.59-4.36-2.47-8.48-5.4-11.96l-12.57,11.96h17.96Z"/>
      <path class="cls-12" d="M461.23,101.16c-66.25,0-128.32,17.36-181.46,47.56h362.91c-53.14-30.19-115.21-47.56-181.46-47.56Z"/>
      <path class="cls-12" d="M663.28,148.72h99.2l16.48-15.69c-5.05-3.84-11.37-5.82-17.87-5.24l-35.05,3.08c-18.14,1.57-34.6-9.89-38.59-26.69l-7.76-32.69c-1.44-6.07-5.36-11.18-10.75-14.56l-39.07,73c11.5,5.71,22.65,11.99,33.4,18.78Z"/>
      <path class="cls-12" d="M624.95,127.54l39.07-72.99c-6.05-2.17-12.69-2.18-18.69.27l-32.33,13.24c-16.63,6.8-36.12.76-45.36-14.03l-17.99-28.8c-3.34-5.35-8.73-9.06-14.95-10.68l-13.45,80.83c36.69,5.79,71.53,16.78,103.7,32.16Z"/>
      <path class="cls-12" d="M393.24,13.72l13.44,80.79c17.8-2.54,36.01-3.89,54.55-3.89s36.74,1.34,54.55,3.88l13.44-80.79c-6.44-.29-12.78,1.66-17.68,5.77l-26.46,22.1c-13.59,11.35-34.1,11.36-47.7,0l-26.46-22.1c-4.91-4.11-11.24-6.05-17.68-5.77Z"/>
      <path class="cls-12" d="M401.22,95.38l-13.45-80.84c-6.22,1.63-11.61,5.33-14.95,10.68l-17.98,28.8c-9.25,14.8-28.76,20.84-45.37,14.03l-32.33-13.23c-6.01-2.47-12.66-2.45-18.69-.28l39.07,72.99c32.17-15.38,67.02-26.37,103.7-32.16Z"/>
      <path class="cls-12" d="M259.19,148.72c10.75-6.79,21.89-13.07,33.4-18.78l-39.07-73c-5.39,3.38-9.31,8.49-10.75,14.56l-7.76,32.69c-3.99,16.8-20.46,28.29-38.59,26.69l-22.73-2,18.38,19.84h67.12Z"/>
      <path d="M266.72,618.7s4.44-4.11,12.13-11.2c-1.25-1.49-1.88-2.82-1.49-3.32,7.61-9.81,16.11-15.34,16.11-15.34.5-.48,2.1.23,3.84,1.63,25.2-23.23,62.67-57.72,99.61-91.53-.91-1.46-.98-3.09-.04-4.09,17.72-18.98,33.87-32.25,33.87-32.25,1.24-1.18,3.55-.89,5.31.6.42-.38.82-.75,1.24-1.13-20.26-19.53-33.86-32.54-33.86-32.54,0,0-4.7,1.86-6.42.38-31.99-27.46-99.85-95.04-99.85-95.04,0,0-2.38-.94-3.14-1.66l-3.01-2.86c-1.19.85-1.86,1.29-1.86,1.29-1.9,1.81-4.78,1.59-6.87,0-.48-.36-.94-.72-1.41-1.09l-2.65,2.53,98.36,106.16-193.99,209.38c13.21,15.9,27.88,30.64,43.83,44.05l42.66-46.04c-8.59-8.56-9.7-20.94-2.37-27.92Z"/>
      <path d="M200.5,683.73c-8.92-8.62-17.35-17.68-25.29-27.14l-38.56,41.62-2.57,26.51c-.6,6.19,1.47,12.21,5.5,17.01l60.92-57.99Z"/>
      <path d="M219.15,700.52c-5.03-4.23-9.95-8.59-14.73-13.07l-60.92,57.99c5.03,3.83,11.34,5.8,17.87,5.24l12.31-1.08,18.39-19.84,27.08-29.23Z"/>
      <path d="M244.99,297.2l.72-.69c-.99-1.75-.73-3.98.82-5.46,0,0,2.19-2.47,5.87-6.31-1.57-1.14-3.81-1.04-5.24.32l-1.49,1.41c-.96.91-2.51.91-3.47,0l-4.76-4.53c-.96-.91-.96-2.39,0-3.3,0,0,10.94-13.63,29.45-28.03,1.05-.82,2.51-.91,3.47,0l4.76,4.53c.96.91.96,2.39,0,3.3l-1.49,1.41c-1.42,1.35-1.54,3.46-.37,4.96,2.16-1.87,4.39-3.74,6.66-5.55,1.68-1.34,3.92-1.68,5.73-.78l.16-.16.38-.22c1.58-.9,3.16-1.78,4.76-2.64l-64.53-69.65c-15.95,13.41-30.62,28.15-43.83,44.05l62.39,67.34Z"/>
      <path d="M200.5,194.75l-60.91-57.99c-4.03,4.8-6.1,10.81-5.5,17.01l2.57,26.5,38.56,41.62c7.94-9.46,16.37-18.52,25.29-27.14Z"/>
      <path d="M322.57,293.3c1.9,1.81,1.62,4.51,0,6.54-.47.59-.93,1.16-1.4,1.73l3.05,2.91c1.06,1.01,1.3,2.53,2.27,5.26,10.32,9.42,71.96,65.84,98.34,93.7,1.19,1.26,1.35,3.12.55,4.75,9.43,8.34,21.56,19.24,35.28,31.66l.56-.61-134.58-145.26-4.07-4.39c-.5.89-.94,1.73-1.29,2.5l1.28,1.22Z"/>
      <path d="M204.41,191.02c4.78-4.49,9.7-8.84,14.73-13.07l-27.08-29.23-18.38-19.84-12.31-1.08c-6.44-.56-12.81,1.4-17.86,5.24l60.91,57.99Z"/>
      <path class="cls-13" d="M139.36,605.17l-43.19,46.61,13.11,2.82c17.65,3.79,29.7,19.58,28.04,36.74l-.66,6.86,38.56-41.62c-13.47-16.05-25.48-33.24-35.86-51.41Z"/>
      <path class="cls-13" d="M376.59,439.24l-98.36-106.16-8.91,8.48c-1.23,1.17-5.85,6-11.57,13.29-1.09.52-2.1,1.15-2.97,1.98-1.96,1.87-2.9,4.35-3.62,6.95-4.21,6.06-7.49,10.92-11.09,18.23l53.02,57.23-146,157.58c10.18,18.33,22.09,35.66,35.5,51.8l193.99-209.38Z"/>
      <path class="cls-13" d="M200.88,339.7c2.74-1.58,8.03-6.82,6.92-7.1l27.69-26.36c1.11-.67,2.06-1.5,2.72-2.59l6.78-6.45-62.39-67.34c-13.41,16.14-25.32,33.47-35.5,51.8l53.78,58.04Z"/>
      <path class="cls-13" d="M175.22,221.89l-38.56-41.62.67,6.86c1.66,17.15-10.39,32.95-28.04,36.74l-13.11,2.82,43.18,46.61c10.37-18.17,22.39-35.37,35.86-51.41Z"/>
      <path class="cls-8" d="M112.17,544.4l-45.01,48.58-9.72,21.51c-2.58,5.72-2.56,12.04-.29,17.79l76.67-37.19c-8.56-16.22-15.81-33.16-21.65-50.7Z"/>
      <path class="cls-8" d="M136.34,599.79l-76.68,37.19c3.55,5.13,8.92,8.86,15.29,10.24l21.22,4.56,43.19-46.61c-1.02-1.79-2.03-3.58-3.01-5.38Z"/>
      <path class="cls-8" d="M293.1,439.24l-53.02-57.23c-.23.47-.47.95-.7,1.44-.57.45-2.3,4.02-2.05,4.24-8.44,18.37-12.91,39.64-3.74,58.8-1.86-.33-3.8-.32-5.54-1.01-1.07-.42-2.01-1.1-3.09-1.49-.74-.27-1.52-.4-2.29-.55-4.59-.86-9.04-2.23-13.4-3.83l-88.58,95.61c6.7,21.5,15.58,42.12,26.42,61.61l146-157.58Z"/>
      <path class="cls-8" d="M199.89,340.13c.26-.05.6-.2.99-.43l-53.78-58.04c-10.83,19.49-19.72,40.1-26.42,61.61l35.58,38.4,43.63-41.53Z"/>
      <path class="cls-8" d="M112.17,334.07c5.84-17.53,13.09-34.48,21.65-50.7l-76.67-37.19c-2.27,5.75-2.29,12.08.29,17.79l9.72,21.51,45.01,48.58Z"/>
      <path class="cls-8" d="M139.36,273.3l-43.18-46.61-21.22,4.56c-6.38,1.37-11.75,5.1-15.29,10.23l76.69,37.2c.99-1.8,1.99-3.6,3.01-5.38Z"/>
      <path class="cls-5" d="M112.17,544.4c-5.19-15.57-9.27-31.6-12.13-48.03l-32.36,4.88-27.63,29.9,16.56,9.37c15.55,8.8,21.89,27.36,14.74,43.19l-4.19,9.27,45.01-48.58Z"/>
      <path class="cls-5" d="M99.12,491.17c-1.1-6.97-1.97-14.01-2.63-21.1l-23.08,24.98,25.71-3.88Z"/>
      <path class="cls-5" d="M106.72,458.99c1.6,26.32,6.37,51.84,13.97,76.22l88.58-95.61c-4.81-1.77-9.53-3.85-14.21-5.92-1.17-.52-2.34-1.03-3.5-1.55-2.56-1.13-5.12-2.27-7.67-3.4-3.13-1.54-6.22-3.11-9.25-4.68-.17-.15-.36-.29-.52-.46-.4-.42-.74-.89-1.2-1.26-.5-.4-1.12-.64-1.72-.88-1.91-.75-3.82-1.5-5.73-2.26-3.83-2.06-7.45-4.06-10.77-5.93-.13-.18-.27-.34-.39-.53-.38-.62-.68-1.32-1.26-1.78-.43-.34-.97-.52-1.49-.7-3.38-1.19-6.53-2.89-9.66-4.59-.59-.32-1.19-.65-1.78-.97-.92-.5-1.83-.99-2.75-1.49.03-.04.06-.08.09-.12.46-.55,1.04-1.15.91-1.84-.13-.66-.86-1-1.58-1.05l19.47-18.53-35.58-38.4c-7.59,24.38-12.37,49.9-13.97,76.22l18.25,19.75-18.25,19.75Z"/>
      <path class="cls-5" d="M99.11,387.31l-25.71-3.88,23.08,24.98c.66-7.09,1.53-14.13,2.63-21.1Z"/>
      <path class="cls-5" d="M100.03,382.11c2.86-16.43,6.94-32.46,12.13-48.03l-45.01-48.58,4.19,9.27c7.15,15.82.81,34.39-14.74,43.19l-16.56,9.37,27.63,29.91,32.36,4.88Z"/>
      <path class="cls-4" d="M15.12,509.17c1.71,5.92,5.6,11.05,11.22,14.23l13.7,7.75,27.63-29.9-52.55,7.92Z"/>
      <path class="cls-4" d="M96.48,470.06c-.95-10.16-1.45-20.44-1.45-30.83s.5-20.67,1.45-30.83l-23.08-24.98-59.15-8.92c-.3,6.13,1.74,12.16,6.05,16.83l23.22,25.18c11.93,12.95,11.93,32.47,0,45.41l-23.22,25.18c-4.31,4.68-6.35,10.7-6.05,16.84l59.15-8.92,23.08-24.98Z"/>
      <path class="cls-4" d="M124.96,439.24l-18.25-19.75c-.4,6.54-.61,13.12-.61,19.75s.21,13.21.61,19.75l18.25-19.75Z"/>
      <path class="cls-4" d="M40.04,347.32l-13.7,7.75c-5.62,3.18-9.51,8.31-11.22,14.23l52.55,7.92-27.63-29.91Z"/>
      <path class="cls-1" d="M559.16,858.64l17.99-28.8c6.42-10.27,19.94-14.44,31.47-9.74l32.33,13.25c9.91,4.05,21.09,3.7,30.7-.96,9.61-4.66,16.47-13.07,18.85-23.08l7.76-32.68c2.76-11.66,14.31-19.59,26.77-18.52l35.05,3.08c10.79.98,21.27-2.68,28.89-9.94,6.12-5.82,9.77-13.43,10.46-21.48.17-1.98.17-3.99-.03-6.01l-3.23-33.37c-1.15-11.9,7.21-22.85,19.45-25.48l34.33-7.38c10.52-2.26,19.35-8.8,24.25-17.95,4.9-9.15,5.26-19.8,1-29.23l-11.67-25.83-2.24-4.95c-4.96-10.98-.56-23.85,10.23-29.96l30.26-17.12c9.26-5.24,15.55-14.06,17.24-24.2s-1.42-20.38-8.53-28.1l-23.22-25.18c-4.14-4.49-6.21-10.12-6.21-15.75,0-5.63,2.07-11.26,6.21-15.75l23.22-25.18c7.11-7.72,10.22-17.96,8.53-28.1-1.69-10.13-7.97-18.95-17.24-24.2l-30.26-17.12c-10.79-6.11-15.18-18.98-10.23-29.96l2.24-4.95,11.68-25.84c4.26-9.43,3.89-20.08-1-29.23-4.9-9.14-13.73-15.68-24.25-17.95l-34.33-7.38c-12.24-2.63-20.6-13.59-19.45-25.48l3.23-33.37c.2-2.02.2-4.03.03-6.02-.69-8.06-4.35-15.66-10.46-21.49-7.63-7.26-18.17-10.89-28.89-9.93l-35.05,3.08c-12.47,1.11-24-6.86-26.77-18.51l-7.76-32.69c-2.38-10.01-9.25-18.43-18.86-23.08-9.6-4.67-20.8-5.01-30.7-.95l-32.33,13.24c-11.53,4.73-25.05.53-31.47-9.74l-17.99-28.8c-5.48-8.77-14.66-14.73-25.23-16.37-.07-.01-.13-.03-.2-.03-3.89-.59-7.79-.56-11.58.03-6.57,1.04-12.79,3.8-17.93,8.09l-26.46,22.1c-9.43,7.89-23.65,7.88-33.09,0l-26.46-22.1c-5.14-4.3-11.36-7.06-17.95-8.09-3.77-.59-7.67-.62-11.56-.03-.07,0-.13.02-.2.03-10.56,1.65-19.75,7.61-25.23,16.37l-17.98,28.8c-6.42,10.27-19.95,14.45-31.47,9.73l-32.33-13.23c-9.9-4.06-21.09-3.73-30.7.95-9.61,4.66-16.48,13.07-18.86,23.08l-7.76,32.69c-2.76,11.65-14.25,19.6-26.77,18.51l-34.44-3.02-.61-.05c-10.74-.92-21.26,2.68-28.89,9.93-7.63,7.26-11.43,17.29-10.44,27.51l1.17,12.12,2.06,21.24c1.15,11.9-7.21,22.85-19.45,25.48l-19.02,4.09-15.31,3.29c-10.52,2.26-19.36,8.8-24.25,17.95-3.81,7.12-4.86,15.14-3.14,22.79.49,2.19,1.2,4.34,2.14,6.44l13.9,30.78c4.96,10.98.56,23.85-10.23,29.96l-18.34,10.38-11.92,6.74c-9.26,5.24-15.55,14.06-17.24,24.2-1.69,10.14,1.42,20.38,8.54,28.1l23.22,25.18c4.12,4.47,6.19,10.08,6.21,15.69,0,.04,0,.09,0,.13-.02,5.61-2.08,11.21-6.21,15.69l-23.22,25.18c-7.11,7.72-10.22,17.96-8.54,28.1s7.97,18.96,17.24,24.2l11.92,6.74,18.34,10.38c10.79,6.11,15.19,18.98,10.23,29.96l-13.91,30.78c-.95,2.1-1.65,4.25-2.14,6.44-1.72,7.65-.66,15.68,3.14,22.79,4.9,9.14,13.74,15.69,24.25,17.95l15.3,3.29,19.03,4.09c12.24,2.63,20.6,13.58,19.45,25.48l-2.06,21.24-1.17,12.13c-.99,10.22,2.82,20.25,10.44,27.5,7.62,7.26,18.15,10.91,28.89,9.94l.61-.05,34.44-3.03c12.51-1.09,24,6.87,26.77,18.52l7.76,32.68c2.37,10.01,9.24,18.43,18.85,23.08,9.6,4.67,20.79,5.01,30.7.95l32.33-13.24c11.52-4.72,25.06-.54,31.47,9.73l17.98,28.8c5.47,8.76,14.65,14.72,25.2,16.37.07.01.14.03.22.04,1.9.28,3.8.43,5.69.43,1.97,0,3.93-.16,5.86-.47,6.58-1.03,12.8-3.79,17.96-8.09l26.46-22.1c9.44-7.88,23.66-7.87,33.09,0l26.46,22.1c5.17,4.32,11.42,7.07,18.03,8.09,3.75.58,7.62.61,11.48.04.07-.01.14-.03.22-.04,10.56-1.65,19.74-7.61,25.2-16.37ZM761.09,750.68l-35.05-3.08c-18.12-1.59-34.61,9.89-38.59,26.7l-7.76,32.68c-1.44,6.07-5.36,11.18-10.75,14.56l-39.08-73c11.5-5.71,22.65-11.99,33.4-18.78,19.67-12.42,38.01-26.59,54.77-42.3l44.44,42.3,16.48,15.69c-5.04,3.84-11.34,5.83-17.87,5.23ZM106.11,439.24c0-6.63.21-13.21.61-19.75,1.6-26.32,6.37-51.84,13.97-76.22,6.7-21.5,15.58-42.12,26.42-61.61,10.18-18.33,22.09-35.66,35.5-51.8,13.21-15.9,27.88-30.64,43.83-44.05,16.49-13.87,34.35-26.3,53.34-37.09,53.14-30.19,115.21-47.56,181.46-47.56s128.32,17.36,181.46,47.56c60.14,34.17,108.83,84.78,139.18,145.26,22.1,44.03,34.48,93.29,34.48,145.26h0c0,51.97-12.38,101.23-34.48,145.26-30.35,60.48-79.04,111.09-139.18,145.26-53.14,30.19-115.2,47.56-181.45,47.56s-128.32-17.36-181.46-47.56c-19-10.79-36.85-23.23-53.34-37.09-15.95-13.41-30.62-28.15-43.83-44.05-13.41-16.14-25.32-33.47-35.5-51.8-10.83-19.49-19.72-40.1-26.42-61.61-7.59-24.38-12.37-49.9-13.97-76.22-.4-6.54-.61-13.12-.61-19.75ZM847.51,647.22l-34.33,7.38c-17.65,3.79-29.7,19.58-28.04,36.74l3.23,33.37c.17,1.7.12,3.39-.1,5.04-.59,4.36-2.47,8.48-5.4,11.96l-12.57-11.96-48.35-46.03c25.53-24.67,47.2-52.96,64.16-83.94l76.68,37.2c-3.55,5.13-8.91,8.86-15.29,10.24ZM896.11,523.41l-30.26,17.12c-15.55,8.8-21.89,27.36-14.74,43.19l.35.78,13.55,30c2.59,5.72,2.57,12.04.29,17.79l-76.67-37.19c1.85-3.5,3.62-7.04,5.35-10.6,13.37-27.63,23.05-57.19,28.43-88.12l84.91,12.8c-1.71,5.92-5.6,11.05-11.22,14.23ZM902.15,391.35l-23.22,25.18c-5.97,6.47-8.95,14.59-8.95,22.71,0,8.12,2.98,16.23,8.95,22.71l23.22,25.18c4.31,4.68,6.35,10.7,6.05,16.84l-84.86-12.79c2.67-16.95,4.08-34.29,4.08-51.93h0c0-17.65-1.41-34.98-4.08-51.93l84.86-12.79c.3,6.13-1.74,12.16-6.05,16.83ZM865.03,263.98l-13.56,30-.35.78c-7.15,15.82-.8,34.39,14.74,43.19l30.26,17.12c5.62,3.18,9.51,8.31,11.22,14.23l-84.91,12.8c-5.38-30.94-15.07-60.49-28.43-88.13-1.72-3.57-3.5-7.1-5.35-10.6l76.67-37.19c2.27,5.75,2.29,12.08-.29,17.79ZM788.27,148.72c.22,1.65.27,3.34.1,5.05l-3.23,33.37c-1.66,17.15,10.39,32.94,28.04,36.74l34.33,7.38c6.37,1.37,11.74,5.1,15.29,10.23l-76.68,37.2c-16.96-30.98-38.63-59.26-64.16-83.94l48.35-46.03,12.57-11.96c2.92,3.48,4.81,7.6,5.4,11.96ZM679.7,71.5l7.76,32.69c3.99,16.8,20.45,28.27,38.59,26.69l35.05-3.08c6.49-.58,12.82,1.39,17.87,5.24l-16.48,15.69-44.43,42.3c-16.76-15.71-35.1-29.88-54.77-42.3-10.75-6.79-21.9-13.07-33.4-18.78l39.07-73c5.39,3.38,9.31,8.49,10.75,14.56ZM549.64,25.23l17.99,28.8c9.24,14.8,28.73,20.84,45.36,14.03l32.33-13.24c6-2.46,12.65-2.44,18.69-.27l-39.07,72.99c-32.17-15.38-67.02-26.37-103.7-32.16l13.45-80.83c6.22,1.63,11.61,5.33,14.95,10.68ZM437.38,41.59c13.6,11.36,34.11,11.35,47.7,0l26.46-22.1c4.91-4.11,11.24-6.06,17.68-5.77l-13.44,80.79c-17.8-2.54-36.01-3.88-54.55-3.88s-36.75,1.34-54.55,3.89l-13.44-80.79c6.44-.29,12.77,1.66,17.68,5.77l26.46,22.1ZM277.14,54.83l32.33,13.23c16.61,6.82,36.12.77,45.37-14.03l17.98-28.8c3.34-5.35,8.73-9.06,14.95-10.68l13.45,80.84c-36.69,5.78-71.53,16.78-103.7,32.16l-39.07-72.99c6.04-2.17,12.68-2.18,18.69.28ZM161.37,127.8l12.31,1.08,22.73,2c18.13,1.59,34.6-9.89,38.59-26.69l7.76-32.69c1.44-6.07,5.36-11.18,10.75-14.56l39.07,73c-11.5,5.71-22.65,11.99-33.4,18.78-14.05,8.88-27.44,18.64-40.04,29.23-5.03,4.23-9.95,8.59-14.73,13.07l-60.91-57.99c5.06-3.84,11.42-5.79,17.86-5.24ZM74.95,231.26l21.22-4.56,13.11-2.82c17.65-3.79,29.7-19.59,28.04-36.74l-.67-6.86-2.57-26.5c-.6-6.2,1.47-12.21,5.5-17.01l60.91,57.99c-8.92,8.62-17.35,17.68-25.29,27.14-13.47,16.05-25.48,33.24-35.86,51.41-1.02,1.79-2.03,3.58-3.01,5.38l-76.69-37.2c3.55-5.13,8.92-8.86,15.29-10.23ZM26.35,355.07l13.7-7.75,16.56-9.37c15.55-8.8,21.89-27.36,14.74-43.19l-4.19-9.27-9.72-21.51c-2.59-5.72-2.57-12.04-.29-17.79l76.67,37.19c-8.56,16.22-15.81,33.17-21.65,50.7-5.19,15.57-9.27,31.6-12.13,48.03l-32.36-4.88-52.55-7.92c1.71-5.92,5.6-11.05,11.22-14.23ZM20.31,487.13l23.22-25.18c11.93-12.94,11.93-32.47,0-45.41l-23.22-25.18c-4.31-4.68-6.35-10.7-6.05-16.83l59.15,8.92,25.71,3.88c-1.1,6.97-1.97,14.01-2.63,21.1-.95,10.16-1.45,20.44-1.45,30.83s.5,20.67,1.45,30.83c.66,7.1,1.53,14.13,2.63,21.1l-25.71,3.88-59.15,8.92c-.3-6.14,1.74-12.16,6.05-16.84ZM57.43,614.5l9.72-21.51,4.19-9.27c7.15-15.82.81-34.39-14.74-43.19l-16.56-9.37-13.7-7.75c-5.62-3.18-9.51-8.31-11.22-14.23l52.55-7.92,32.36-4.88c2.86,16.43,6.94,32.46,12.13,48.03,5.84,17.53,13.09,34.47,21.65,50.7l-76.67,37.19c-2.28-5.75-2.29-12.07.29-17.79ZM134.09,724.71l2.57-26.51.66-6.86c1.66-17.16-10.39-32.95-28.04-36.74l-13.11-2.82-21.22-4.56c-6.38-1.37-11.75-5.1-15.29-10.24l76.68-37.19c.99,1.8,1.99,3.6,3.01,5.38,10.37,18.17,22.39,35.37,35.86,51.41,7.94,9.46,16.37,18.52,25.29,27.14l-60.92,57.99c-4.03-4.8-6.1-10.81-5.5-17.01ZM242.76,806.98l-7.76-32.68c-3.99-16.8-20.56-28.31-38.59-26.7l-22.74,2-12.31,1.08c-6.53.56-12.83-1.41-17.87-5.24l60.92-57.99c4.78,4.48,9.7,8.84,14.73,13.07,12.6,10.59,25.99,20.35,40.04,29.23,10.75,6.79,21.89,13.07,33.4,18.78l-39.07,73.01c-5.39-3.38-9.31-8.49-10.75-14.56ZM372.82,853.25l-17.98-28.8c-6.68-10.7-18.72-16.81-31.17-16.81-4.77,0-9.59.9-14.2,2.78l-32.33,13.24c-6,2.46-12.65,2.44-18.69.28l39.07-72.99c32.17,15.38,67.02,26.37,103.7,32.16l-13.45,80.84c-6.22-1.63-11.61-5.34-14.95-10.69ZM485.08,836.89c-13.59-11.35-34.1-11.36-47.7,0l-26.46,22.1c-4.92,4.11-11.24,6.05-17.68,5.77l13.44-80.79c17.8,2.54,36.01,3.89,54.55,3.89s36.74-1.34,54.55-3.89l13.44,80.79c-6.45.28-12.77-1.66-17.68-5.76l-26.46-22.1ZM534.69,863.93l-13.45-80.84c36.69-5.78,71.53-16.78,103.7-32.16l39.07,72.99c-6.04,2.17-12.68,2.18-18.7-.27l-32.33-13.25c-16.62-6.8-36.13-.77-45.36,14.03l-17.99,28.8c-3.34,5.35-8.73,9.06-14.95,10.69Z"/>
      <path class="cls-1" d="M224.96,443.98c1.08.39,2.02,1.07,3.09,1.49,1.74.69,3.68.69,5.54,1.01-9.17-19.16-4.7-40.43,3.74-58.8-.25-.22,1.48-3.79,2.05-4.24.24-.49.47-.97.7-1.44,3.6-7.3,6.88-12.16,11.09-18.23.72-2.59,1.67-5.07,3.62-6.95.87-.83,1.88-1.47,2.97-1.98,5.71-7.29,10.34-12.12,11.57-13.29l8.91-8.48,2.65-2.53c.47.36.94.73,1.41,1.09,2.1,1.59,4.98,1.81,6.87,0,0,0,.67-.44,1.86-1.29l3.01,2.86c.76.72,3.14,1.66,3.14,1.66,0,0,67.85,67.59,99.85,95.04,1.72,1.48,6.42-.38,6.42-.38,0,0,13.6,13.01,33.86,32.54-.42.38-.82.75-1.24,1.13-1.76-1.49-4.08-1.78-5.31-.6,0,0-16.14,13.27-33.87,32.25-.94,1-.86,2.63.04,4.09-36.94,33.81-74.41,68.3-99.61,91.53-1.75-1.39-3.34-2.11-3.84-1.63,0,0-8.5,5.53-16.11,15.34-.39.5.24,1.83,1.49,3.32-7.69,7.1-12.13,11.2-12.13,11.2-7.33,6.98-6.22,19.36,2.37,27.92.15.15.28.3.43.44,9,8.57,22.34,9.76,29.79,2.67,1.05-1,6.44-7.07,10.26-11.7.22-.27.45-.53.68-.8,1.29.87,2.38,1.27,2.83.95,10.3-7.24,15.43-15.99,15.43-15.99.51-.49-.26-2.03-1.76-3.72,1.72-1.84,3.44-3.67,5.19-5.49,7.98-8.28,17.53-17.97,28.03-28.48,18.91-18.94,40.9-40.58,62.4-61.56,1.4.62,2.88.6,3.82-.2,19.93-16.87,33.31-32.78,33.31-32.78.88-.84.97-2.19.41-3.5.45-.43.88-.85,1.33-1.28.45.43.88.85,1.33,1.28-.56,1.31-.47,2.66.41,3.5,0,0,13.37,15.91,33.31,32.78.94.8,2.42.82,3.82.2,21.5,20.98,43.49,42.62,62.4,61.56,10.5,10.52,20.05,20.21,28.03,28.48,1.75,1.81,3.48,3.65,5.19,5.49-1.49,1.68-2.27,3.23-1.76,3.72,0,0,5.12,8.75,15.43,15.99.45.32,1.54-.09,2.83-.95.22.27.46.53.68.8,3.83,4.63,9.21,10.7,10.26,11.7,7.45,7.09,20.79,5.9,29.79-2.67,9-8.57,10.25-21.26,2.8-28.36,0,0-4.44-4.11-12.14-11.2,1.25-1.49,1.88-2.82,1.49-3.32-7.61-9.81-16.11-15.34-16.11-15.34-.5-.48-2.1.23-3.84,1.63-2.07-1.91-4.24-3.91-6.47-5.97-24.9-22.94-59.23-54.53-93.14-85.56.91-1.46.98-3.09.04-4.09-17.72-18.98-33.87-32.25-33.87-32.25-1.24-1.18-3.55-.89-5.31.6-.42-.38-.82-.75-1.24-1.13,9.69-9.34,17.85-17.19,23.73-22.83,6.42-6.16,10.12-9.71,10.12-9.71,0,0,4.7,1.86,6.42.38,31.99-27.46,99.85-95.04,99.85-95.04,0,0,2.38-.94,3.14-1.66l3.01-2.86c1.19.85,1.86,1.29,1.86,1.29,1.9,1.81,4.78,1.59,6.87,0,.48-.36.94-.72,1.41-1.09l11.56,11c1.23,1.17,5.86,6,11.57,13.29,1.09.52,2.1,1.15,2.97,1.98,1.96,1.87,2.9,4.35,3.62,6.95,4.48,6.45,7.9,11.54,11.79,19.67.57.45,2.3,4.02,2.05,4.24,7.39,16.08,11.73,34.38,6.55,51.55-.74,2.44-1.67,4.86-2.81,7.25,1.86-.33,3.8-.32,5.54-1.01,1.07-.42,2.01-1.1,3.09-1.49.73-.27,1.51-.4,2.29-.55,4.94-.93,9.71-2.43,14.39-4.2,4.47-1.69,8.86-3.62,13.22-5.56,1.17-.52,2.34-1.03,3.5-1.55,2.56-1.13,5.12-2.27,7.67-3.4,3.13-1.54,6.22-3.11,9.25-4.68.17-.15.36-.29.52-.46.4-.42.74-.89,1.2-1.26.5-.4,1.12-.64,1.72-.88,1.91-.75,3.82-1.5,5.73-2.26,3.83-2.06,7.45-4.06,10.77-5.93.13-.18.27-.34.39-.53.38-.62.68-1.32,1.26-1.78.43-.34.97-.52,1.49-.7,3.38-1.19,6.53-2.89,9.66-4.59.59-.32,1.19-.65,1.78-.97.92-.5,1.83-.99,2.75-1.49-.03-.04-.06-.08-.09-.12-.46-.55-1.04-1.15-.91-1.84.13-.66.86-1,1.58-1.05l-63.1-60.07c-2.09-.42-9.18-7.21-7.91-7.53l-27.69-26.36c-1.11-.67-2.06-1.5-2.72-2.59l-7.5-7.14c.44-.78.62-1.66.56-2.53-.08-1.07-.52-2.11-1.38-2.93,0,0-2.19-2.47-5.87-6.31,1.57-1.14,3.81-1.04,5.24.32l1.49,1.41c.96.91,2.51.91,3.47,0l4.76-4.53c.96-.91.96-2.39,0-3.3,0,0-10.94-13.63-29.45-28.03-1.05-.82-2.51-.91-3.47,0l-4.76,4.53c-.96.91-.96,2.39,0,3.3l1.49,1.41c1.42,1.35,1.54,3.46.37,4.96-2.16-1.87-4.39-3.74-6.66-5.55-1.68-1.34-3.92-1.68-5.73-.78l-.16-.16-.38-.22c-5.95-3.38-12.04-6.53-18.23-9.48-4.29-2.04-9.22-4.54-11.77-6.37-.58-.41-1.55-1.05-2.82-1.82-2.29-.08-4.4-1.76-6.13-3.35-.07-.06-.13-.12-.2-.19-13.17-6.86-37.32-16.58-57.89-11.22,0,0,1.53,1.17,3.99,3.08.57.13,1.13.32,1.64.58,2.11,1.05,3.67,2.86,5.29,4.52.69.7,1.4,1.38,2.12,2.05,2.44,1.96,5.03,4.06,7.6,6.19,1.56,1.16,3.15,2.3,4.72,3.43,8.54,6.14,17.57,13.11,20.53,22.79,5.77,7.58,13.32,17.88,16.06,23.77l-1.28,1.22c-.22.21-.41.44-.58.67-1.23,1.76-.86,4.07.58,5.87.47.59.93,1.16,1.4,1.73l-3.05,2.91c-1.06,1.01-1.3,2.53-2.27,5.26-10.32,9.42-71.96,65.84-98.34,93.7-1.19,1.26-1.35,3.12-.55,4.75-9.27,8.2-21.16,18.88-34.61,31.05-.41.37-.82.74-1.23,1.11-.19-.17-.37-.34-.56-.51-13.72-12.42-25.85-23.32-35.28-31.66.8-1.63.64-3.49-.55-4.75-26.38-27.86-88.02-84.28-98.34-93.7-.98-2.73-1.21-4.25-2.27-5.26l-3.05-2.91c.47-.57.93-1.14,1.4-1.73,1.62-2.04,1.9-4.74,0-6.54l-1.28-1.22c.35-.76.79-1.6,1.29-2.5,3.37-6.02,9.74-14.68,14.77-21.28,2.96-9.68,11.98-16.65,20.53-22.79,1.58-1.13,3.16-2.27,4.72-3.43,2.58-2.14,5.16-4.24,7.6-6.19.72-.67,1.44-1.35,2.12-2.05,1.62-1.66,3.18-3.47,5.29-4.52.51-.25,1.07-.45,1.64-.58,2.45-1.91,3.99-3.08,3.99-3.08-20.56-5.36-44.71,4.36-57.89,11.22-.07.06-.13.13-.2.19-1.73,1.59-3.84,3.28-6.13,3.35-1.28.78-2.25,1.41-2.82,1.82-2.55,1.83-7.48,4.33-11.77,6.37-4.55,2.17-9.05,4.45-13.47,6.84-1.6.86-3.18,1.74-4.76,2.64l-.38.22-.16.16c-1.81-.9-4.05-.56-5.73.78-2.27,1.82-4.5,3.68-6.66,5.55-1.16-1.49-1.05-3.6.37-4.96l1.49-1.41c.96-.91.96-2.39,0-3.3l-4.76-4.53c-.96-.91-2.42-.82-3.47,0-18.51,14.41-29.45,28.03-29.45,28.03-.96.91-.96,2.39,0,3.3l4.76,4.53c.96.91,2.51.91,3.47,0l1.49-1.41c1.43-1.36,3.67-1.46,5.24-.32-3.68,3.84-5.87,6.31-5.87,6.31-1.55,1.48-1.81,3.71-.82,5.46l-.72.69-6.78,6.45c-.66,1.09-1.61,1.91-2.72,2.59l-27.69,26.36c1.11.28-4.18,5.52-6.92,7.1-.39.23-.73.38-.99.43l-43.63,41.53-19.47,18.53c.72.05,1.45.39,1.58,1.05.13.69-.45,1.29-.91,1.84-.03.04-.06.08-.09.12.92.5,1.83.99,2.75,1.49.59.32,1.19.65,1.78.97,3.13,1.7,6.28,3.41,9.66,4.59.52.18,1.06.36,1.49.7.58.46.88,1.16,1.26,1.78.11.19.26.36.39.53,3.32,1.87,6.94,3.87,10.77,5.93,1.91.75,3.82,1.5,5.73,2.26.6.24,1.22.48,1.72.88.46.36.8.83,1.2,1.26.16.17.35.31.52.46,3.03,1.57,6.12,3.14,9.25,4.68,2.56,1.13,5.12,2.27,7.67,3.4,1.17.52,2.34,1.03,3.5,1.55,4.68,2.07,9.39,4.14,14.21,5.92,4.36,1.61,8.81,2.97,13.4,3.83.77.14,1.55.28,2.29.55Z"/>
    </g>
    <g>
      <path class="cls-2" d="M250.81,46.09c-9.61,4.66-16.48,13.07-18.86,23.08l-7.76,32.69c-2.76,11.65-14.25,19.6-26.77,18.51l-35.05-3.08c-10.74-.92-21.26,2.68-28.89,9.93-7.63,7.26-11.43,17.29-10.44,27.51l3.23,33.37c1.15,11.9-7.21,22.85-19.45,25.48l-34.33,7.38c-10.52,2.26-19.36,8.8-24.25,17.95-4.9,9.15-5.26,19.8-1,29.23l13.9,30.78c4.96,10.98.56,23.85-10.23,29.96l-30.26,17.12c-9.26,5.24-15.55,14.06-17.24,24.2-1.69,10.14,1.42,20.38,8.54,28.1l23.22,25.18c8.28,8.98,8.28,22.52,0,31.5l-23.22,25.18c-7.11,7.72-10.22,17.96-8.54,28.1,1.69,10.14,7.97,18.96,17.24,24.2l30.26,17.12c10.79,6.11,15.19,18.98,10.23,29.96l-13.91,30.78c-4.26,9.43-3.89,20.08,1,29.23,4.9,9.14,13.74,15.69,24.25,17.95l34.33,7.38c12.24,2.63,20.6,13.58,19.45,25.48l-3.23,33.37c-.99,10.22,2.82,20.25,10.44,27.5,7.62,7.26,18.15,10.91,28.89,9.94l35.05-3.08c12.51-1.09,24,6.87,26.77,18.52l7.76,32.68c2.37,10.01,9.24,18.43,18.85,23.08,9.6,4.67,20.79,5.01,30.7.95l32.33-13.24c11.52-4.72,25.06-.54,31.47,9.73l17.98,28.8c5.51,8.82,14.77,14.81,25.42,16.41,1.9.28,3.8.43,5.69.43,8.71,0,17.16-3,23.81-8.56l26.46-22.1c9.44-7.88,23.66-7.87,33.09,0l26.46,22.1c8.1,6.77,18.84,9.7,29.51,8.13,10.65-1.61,19.91-7.59,25.42-16.41l17.99-28.8c6.42-10.27,19.94-14.44,31.47-9.74l32.33,13.25c9.91,4.05,21.09,3.7,30.7-.96,9.61-4.66,16.47-13.07,18.85-23.08l7.76-32.68c2.76-11.66,14.31-19.59,26.77-18.52l35.05,3.08c10.79.98,21.27-2.68,28.89-9.94,7.62-7.26,11.43-17.28,10.43-27.5l-3.23-33.37c-1.15-11.9,7.21-22.85,19.45-25.48l34.33-7.38c10.52-2.26,19.35-8.8,24.25-17.95,4.9-9.15,5.26-19.8,1-29.23l-13.9-30.78c-4.96-10.98-.56-23.85,10.23-29.96l30.26-17.12c9.26-5.24,15.55-14.06,17.24-24.2,1.69-10.14-1.42-20.38-8.53-28.1l-23.22-25.18c-8.28-8.98-8.28-22.52,0-31.5l23.22-25.18c7.11-7.72,10.22-17.96,8.53-28.1-1.69-10.13-7.97-18.95-17.24-24.2l-30.26-17.12c-10.79-6.11-15.18-18.98-10.23-29.96l13.91-30.78c4.26-9.43,3.89-20.08-1-29.23-4.9-9.14-13.73-15.68-24.25-17.95l-34.33-7.38c-12.24-2.63-20.6-13.59-19.45-25.48l3.23-33.37c.99-10.22-2.81-20.25-10.43-27.51-7.63-7.26-18.17-10.89-28.89-9.93l-35.05,3.08c-12.47,1.11-24-6.86-26.77-18.51l-7.76-32.69c-2.38-10.01-9.25-18.43-18.86-23.08-9.6-4.67-20.8-5.01-30.7-.95l-32.33,13.24c-11.53,4.73-25.05.53-31.47-9.74l-17.99-28.8c-5.51-8.82-14.78-14.81-25.43-16.41-10.64-1.62-21.4,1.36-29.5,8.13l-26.46,22.1c-9.43,7.89-23.65,7.88-33.09,0l-26.46-22.1c-8.09-6.76-18.82-9.73-29.5-8.13-10.65,1.6-19.91,7.59-25.43,16.41l-17.98,28.8c-6.42,10.27-19.95,14.45-31.47,9.73l-32.33-13.23c-9.9-4.06-21.09-3.73-30.7.95ZM161.37,127.8l35.05,3.08c18.13,1.59,34.6-9.89,38.59-26.69l7.76-32.69c1.44-6.07,5.36-11.18,10.75-14.56l39.07,73c-32.55,16.15-62.25,36.77-88.17,61.08l-60.91-57.99c5.06-3.84,11.42-5.79,17.86-5.24ZM461.23,101.17c195.81,0,355.12,151.66,355.12,338.07s-159.3,338.07-355.12,338.07S106.11,625.65,106.11,439.24,265.42,101.17,461.23,101.17ZM74.95,231.26l34.33-7.38c17.65-3.79,29.7-19.59,28.04-36.74l-3.23-33.37c-.6-6.2,1.47-12.21,5.5-17.01l60.91,57.99c-25.53,24.67-47.2,52.95-64.16,83.93l-76.69-37.2c3.55-5.13,8.92-8.86,15.29-10.23ZM26.35,355.07l30.26-17.12c15.55-8.8,21.89-27.36,14.74-43.19l-13.9-30.78c-2.59-5.72-2.57-12.04-.29-17.79l76.67,37.19c-16.15,30.63-27.7,63.8-33.78,98.73l-84.91-12.8c1.71-5.92,5.6-11.05,11.22-14.23ZM14.26,503.97c-.3-6.14,1.74-12.16,6.05-16.84l23.22-25.18c11.93-12.94,11.93-32.47,0-45.41l-23.22-25.18c-4.31-4.68-6.35-10.7-6.05-16.83l84.86,12.79c-2.67,16.95-4.08,34.28-4.08,51.93s1.41,34.98,4.08,51.93l-84.86,12.79ZM57.43,614.5l13.91-30.78c7.15-15.82.81-34.39-14.74-43.19l-30.26-17.12c-5.62-3.18-9.51-8.31-11.22-14.23l84.91-12.8c6.08,34.93,17.63,68.1,33.78,98.73l-76.67,37.19c-2.28-5.75-2.29-12.07.29-17.79ZM134.09,724.71l3.23-33.37c1.66-17.16-10.39-32.95-28.04-36.74l-34.33-7.38c-6.38-1.37-11.75-5.1-15.29-10.24l76.68-37.19c16.96,30.98,38.63,59.26,64.16,83.94l-60.92,57.99c-4.03-4.8-6.1-10.81-5.5-17.01ZM242.76,806.98l-7.76-32.68c-3.99-16.8-20.56-28.31-38.59-26.7l-35.05,3.08c-6.53.56-12.83-1.41-17.87-5.24l60.92-57.99c25.92,24.31,55.62,44.93,88.17,61.08l-39.07,73.01c-5.39-3.38-9.31-8.49-10.75-14.56ZM387.77,863.93c-6.22-1.63-11.61-5.34-14.95-10.69l-17.98-28.8c-6.68-10.7-18.72-16.81-31.17-16.81-4.77,0-9.59.9-14.2,2.78l-32.33,13.24c-6,2.46-12.65,2.44-18.69.28l39.07-72.99c32.17,15.38,67.02,26.37,103.7,32.16l-13.45,80.84ZM511.54,858.99l-26.46-22.1c-13.59-11.35-34.1-11.36-47.7,0l-26.46,22.1c-4.92,4.11-11.24,6.05-17.68,5.77l13.44-80.79c17.8,2.54,36.01,3.89,54.55,3.89s36.74-1.34,54.55-3.89l13.44,80.79c-6.45.28-12.77-1.66-17.68-5.76ZM645.32,823.66l-32.33-13.25c-16.62-6.8-36.13-.77-45.36,14.03l-17.99,28.8c-3.34,5.35-8.73,9.06-14.95,10.69l-13.45-80.84c36.69-5.78,71.53-16.78,103.7-32.16l39.07,72.99c-6.04,2.17-12.68,2.18-18.7-.27ZM761.09,750.68l-35.05-3.08c-18.12-1.59-34.61,9.89-38.59,26.7l-7.76,32.68c-1.44,6.07-5.36,11.18-10.75,14.56l-39.08-73c32.54-16.15,62.25-36.77,88.17-61.08l60.92,57.99c-5.04,3.84-11.34,5.83-17.87,5.23ZM847.51,647.22l-34.33,7.38c-17.65,3.79-29.7,19.58-28.04,36.74l3.23,33.37c.6,6.2-1.46,12.21-5.5,17.01l-60.92-57.99c25.53-24.67,47.2-52.96,64.16-83.94l76.68,37.2c-3.55,5.13-8.91,8.86-15.29,10.24ZM896.11,523.41l-30.26,17.12c-15.55,8.8-21.89,27.36-14.74,43.19l13.9,30.78c2.59,5.72,2.57,12.04.29,17.79l-76.67-37.19c16.15-30.63,27.7-63.8,33.78-98.73l84.91,12.8c-1.71,5.92-5.6,11.05-11.22,14.23ZM908.2,374.52c.3,6.13-1.74,12.16-6.05,16.83l-23.22,25.18c-11.93,12.95-11.93,32.47,0,45.41l23.22,25.18c4.31,4.68,6.35,10.7,6.05,16.84l-84.86-12.79c2.67-16.95,4.08-34.29,4.08-51.93s-1.41-34.98-4.08-51.93l84.86-12.79ZM865.03,263.98l-13.91,30.78c-7.15,15.82-.8,34.39,14.74,43.19l30.26,17.12c5.62,3.18,9.51,8.31,11.22,14.23l-84.91,12.8c-6.08-34.93-17.63-68.1-33.78-98.73l76.67-37.19c2.27,5.75,2.29,12.08-.29,17.79ZM788.37,153.77l-3.23,33.37c-1.66,17.15,10.39,32.94,28.04,36.74l34.33,7.38c6.37,1.37,11.74,5.1,15.29,10.23l-76.68,37.2c-16.96-30.98-38.63-59.26-64.16-83.94l60.91-57.99c4.03,4.8,6.1,10.81,5.5,17.01ZM679.7,71.5l7.76,32.69c3.99,16.8,20.45,28.27,38.59,26.69l35.05-3.08c6.49-.58,12.82,1.39,17.87,5.24l-60.91,57.99c-25.92-24.31-55.63-44.93-88.17-61.08l39.07-73c5.39,3.38,9.31,8.49,10.75,14.56ZM534.69,14.55c6.22,1.63,11.61,5.33,14.95,10.68l17.99,28.8c9.24,14.8,28.73,20.84,45.36,14.03l32.33-13.24c6-2.46,12.65-2.44,18.69-.27l-39.07,72.99c-32.17-15.38-67.02-26.37-103.7-32.16l13.45-80.83ZM410.92,19.48l26.46,22.1c13.6,11.36,34.11,11.35,47.7,0l26.46-22.1c4.91-4.11,11.24-6.06,17.68-5.77l-13.44,80.79c-17.8-2.54-36.01-3.88-54.55-3.88s-36.75,1.34-54.55,3.89l-13.44-80.79c6.44-.29,12.77,1.66,17.68,5.77ZM277.14,54.83l32.33,13.23c16.61,6.82,36.12.77,45.37-14.03l17.98-28.8c3.34-5.35,8.73-9.06,14.95-10.68l13.45,80.84c-36.69,5.78-71.53,16.78-103.7,32.16l-39.07-72.99c6.04-2.17,12.68-2.18,18.69.28Z"/>
      <path class="cls-2" d="M138.37,401.25c.13.69-.45,1.29-.91,1.84-.03.04-.06.08-.09.12.92.5,1.83.99,2.75,1.49.59.32,1.19.65,1.78.97,3.13,1.7,6.28,3.41,9.66,4.59.52.18,1.06.36,1.49.7.58.46.88,1.16,1.26,1.78.11.19.26.36.39.53,3.32,1.87,6.94,3.87,10.77,5.93,1.91.75,3.82,1.5,5.73,2.26.6.24,1.22.48,1.72.88.46.36.8.83,1.2,1.26.16.17.35.31.52.46,3.03,1.57,6.12,3.14,9.25,4.68,2.56,1.13,5.12,2.27,7.67,3.4,1.17.52,2.34,1.03,3.5,1.55,8.92,3.95,17.95,7.93,27.61,9.75.77.14,1.55.28,2.29.55,1.08.39,2.03,1.07,3.09,1.49,1.74.69,3.68.69,5.54,1.01-9.17-19.16-4.7-40.43,3.74-58.8-.25-.22,1.48-3.79,2.05-4.24,3.89-8.12,7.31-13.21,11.79-19.67.72-2.59,1.67-5.07,3.62-6.95.87-.83,1.88-1.47,2.97-1.98,5.71-7.29,10.34-12.12,11.57-13.29l11.56-11c.47.36.94.73,1.41,1.09,2.1,1.59,4.98,1.81,6.87,0,0,0,.67-.44,1.86-1.29l3.01,2.86c.76.72,3.13,1.66,3.13,1.66,0,0,67.85,67.59,99.85,95.04,1.72,1.48,6.42-.38,6.42-.38,0,0,13.6,13.01,33.86,32.54-.42.38-.82.75-1.24,1.13-1.76-1.49-4.08-1.78-5.31-.6,0,0-16.14,13.27-33.87,32.25-.94,1-.86,2.63.04,4.09-36.94,33.81-74.41,68.3-99.61,91.53-1.75-1.39-3.34-2.11-3.84-1.63,0,0-8.5,5.53-16.11,15.34-.39.5.24,1.83,1.49,3.32-7.69,7.1-12.13,11.2-12.13,11.2-7.45,7.1-6.2,19.79,2.8,28.36,9,8.57,22.34,9.76,29.79,2.67,1.05-1,6.44-7.07,10.26-11.7.22-.27.45-.53.68-.8,1.29.87,2.38,1.27,2.83.95,10.3-7.25,15.43-15.99,15.43-15.99.51-.49-.26-2.03-1.76-3.72,1.72-1.84,3.44-3.67,5.19-5.49,22.34-23.18,56.99-57.41,90.43-90.04,1.4.62,2.88.6,3.82-.2,19.93-16.87,33.31-32.78,33.31-32.78.88-.84.97-2.19.41-3.5.45-.43.88-.85,1.33-1.28.45.43.88.85,1.33,1.28-.57,1.31-.47,2.66.41,3.5,0,0,13.37,15.91,33.31,32.78.94.8,2.42.82,3.82.2,33.44,32.63,68.09,66.86,90.43,90.04,1.75,1.81,3.48,3.65,5.19,5.49-1.49,1.68-2.27,3.23-1.76,3.72,0,0,5.12,8.75,15.43,15.99.45.32,1.54-.09,2.83-.95.22.27.46.53.68.8,3.83,4.63,9.21,10.7,10.26,11.7,7.45,7.09,20.79,5.9,29.79-2.67,9-8.57,10.25-21.26,2.8-28.36,0,0-4.44-4.11-12.14-11.2,1.25-1.49,1.88-2.82,1.49-3.32-7.61-9.81-16.11-15.34-16.11-15.34-.5-.48-2.1.24-3.84,1.63-25.2-23.23-62.67-57.72-99.61-91.53.91-1.46.98-3.09.04-4.09-17.72-18.98-33.87-32.25-33.87-32.25-1.24-1.18-3.55-.89-5.31.6-.42-.38-.82-.75-1.24-1.13,20.26-19.53,33.86-32.54,33.86-32.54,0,0,4.7,1.86,6.42.38,31.99-27.46,99.85-95.04,99.85-95.04,0,0,2.38-.94,3.14-1.66l3.01-2.86c1.19.85,1.86,1.29,1.86,1.29,1.9,1.81,4.78,1.59,6.87,0,.48-.36.94-.72,1.41-1.09l11.56,11c1.23,1.17,5.86,6,11.57,13.29,1.09.52,2.1,1.15,2.97,1.98,1.96,1.87,2.9,4.35,3.62,6.95,4.48,6.45,7.9,11.54,11.79,19.67.57.45,2.3,4.02,2.05,4.24,8.44,18.37,12.91,39.64,3.74,58.8,1.86-.33,3.8-.32,5.54-1.01,1.07-.42,2.01-1.1,3.09-1.49.73-.27,1.51-.4,2.29-.55,9.65-1.82,18.69-5.8,27.61-9.75,1.17-.52,2.34-1.03,3.5-1.55,2.56-1.13,5.12-2.27,7.67-3.4,3.13-1.54,6.22-3.11,9.25-4.68.17-.15.36-.29.52-.46.4-.42.74-.89,1.2-1.26.5-.4,1.12-.64,1.72-.88,1.91-.75,3.82-1.5,5.73-2.26,3.83-2.06,7.45-4.06,10.77-5.93.13-.18.27-.34.39-.53.38-.62.68-1.32,1.26-1.78.43-.34.97-.52,1.49-.7,3.38-1.19,6.53-2.89,9.66-4.59.59-.32,1.19-.65,1.78-.97.92-.5,1.83-.99,2.75-1.49-.03-.04-.06-.08-.09-.12-.46-.55-1.04-1.15-.91-1.84.13-.66.86-1,1.58-1.05l-63.1-60.07c-2.09-.42-9.18-7.21-7.91-7.53l-27.69-26.36c-1.11-.67-2.06-1.5-2.72-2.59l-7.5-7.14c.99-1.75.73-3.98-.82-5.46,0,0-2.19-2.47-5.87-6.31,1.57-1.14,3.81-1.04,5.24.32l1.49,1.41c.96.91,2.51.91,3.47,0l4.76-4.53c.96-.91.96-2.39,0-3.3,0,0-10.94-13.63-29.45-28.03-1.05-.82-2.51-.91-3.47,0l-4.76,4.53c-.96.91-.96,2.39,0,3.3l1.49,1.41c1.42,1.35,1.54,3.46.37,4.96-2.16-1.87-4.39-3.74-6.66-5.55-1.68-1.34-3.92-1.68-5.73-.78l-.16-.16-.38-.22c-5.95-3.38-12.04-6.53-18.23-9.48-4.29-2.04-9.22-4.54-11.77-6.37-.58-.41-1.55-1.05-2.82-1.82-2.29-.08-4.4-1.76-6.13-3.35-.07-.06-.13-.12-.2-.19-13.17-6.86-37.32-16.58-57.89-11.22,0,0,1.53,1.17,3.99,3.08.57.13,1.13.32,1.64.58,2.11,1.05,3.67,2.86,5.29,4.52.69.7,1.4,1.38,2.12,2.05,2.44,1.96,5.03,4.06,7.6,6.19,1.56,1.16,3.15,2.3,4.72,3.43,8.54,6.14,17.57,13.11,20.53,22.79,5.77,7.58,13.32,17.88,16.06,23.77l-1.28,1.22c-1.9,1.81-1.62,4.51,0,6.54.47.59.93,1.16,1.4,1.73l-3.05,2.91c-1.06,1.01-1.3,2.53-2.27,5.26-10.32,9.42-71.96,65.84-98.34,93.7-1.19,1.26-1.35,3.12-.55,4.75-9.56,8.45-21.88,19.53-35.84,32.16-13.95-12.63-26.28-23.71-35.84-32.16.8-1.63.64-3.49-.55-4.75-26.38-27.86-88.02-84.28-98.34-93.7-.98-2.73-1.21-4.25-2.27-5.26l-3.05-2.91c.47-.57.93-1.14,1.4-1.73,1.62-2.04,1.9-4.74,0-6.54l-1.28-1.22c2.74-5.9,10.29-16.2,16.06-23.77,2.96-9.68,11.98-16.65,20.53-22.79,1.58-1.13,3.16-2.27,4.72-3.43,2.58-2.14,5.16-4.24,7.6-6.19.72-.67,1.44-1.35,2.12-2.05,1.62-1.66,3.18-3.47,5.29-4.52.51-.25,1.07-.45,1.64-.58,2.45-1.91,3.99-3.08,3.99-3.08-20.56-5.36-44.71,4.36-57.89,11.22-.07.06-.13.13-.2.19-1.73,1.59-3.84,3.28-6.13,3.35-1.28.78-2.25,1.41-2.82,1.82-2.55,1.83-7.48,4.33-11.77,6.37-6.2,2.95-12.29,6.1-18.23,9.48l-.38.22-.16.16c-1.81-.9-4.05-.56-5.73.78-2.27,1.82-4.5,3.68-6.66,5.55-1.16-1.49-1.05-3.6.37-4.96l1.49-1.41c.96-.91.96-2.39,0-3.3l-4.76-4.53c-.96-.91-2.42-.82-3.47,0-18.51,14.41-29.45,28.03-29.45,28.03-.96.91-.96,2.39,0,3.3l4.76,4.53c.96.91,2.51.91,3.47,0l1.49-1.41c1.43-1.36,3.67-1.46,5.24-.32-3.68,3.84-5.87,6.31-5.87,6.31-1.55,1.48-1.81,3.71-.82,5.46l-7.5,7.14c-.66,1.09-1.61,1.91-2.72,2.59l-27.69,26.36c1.26.32-5.82,7.11-7.91,7.53l-63.1,60.07c.72.05,1.45.39,1.58,1.05Z"/>
    </g>
  </g>
</svg>